PathFileType	4	(X/Y/Z)	Patient4_TMGait_0pt6_02_right_25.trc.trc
DataRate	CameraRate	NumFrames	NumMarkers	Units	OrigDataRate	OrigDataStartFrame	OrigNumFrames
82.840236686390	82.840236686390	5	33	mm	82.840236686390	124	       141
Frame#	Time	Sacral			L.Shoulder			Chest			R.Shoulder			Neck			R.ASIS			L.ASIS			R.Thigh.Superior			R.Thigh.Lateral			R.Thigh.Inferior			R.Patella			L.Thigh.Superior			L.Thigh.Lateral			L.Thigh.Inferior			L.Patella			L.Shank.Superior			L.Shank.Lateral			L.Shank.Inferior			R.Shank.Superior			R.Shank.Lateral			R.Shank.Inferior			R.Heel			R.Midfoot.Superior			R.Midfoot.Lateral			R.Toe			L.Heel			L.Midfoot.Lateral			L.Midfoot.Superior			L.Toe			L.Elbow			L.Wrist			R.Elbow			R.Wrist			
		X1	Y1	Z1	X2	Y2	Z2	X3	Y3	Z3	X4	Y4	Z4	X5	Y5	Z5	X6	Y6	Z6	X7	Y7	Z7	X8	Y8	Z8	X9	Y9	Z9	X10	Y10	Z10	X11	Y11	Z11	X12	Y12	Z12	X13	Y13	Z13	X14	Y14	Z14	X15	Y15	Z15	X16	Y16	Z16	X17	Y17	Z17	X18	Y18	Z18	X19	Y19	Z19	X20	Y20	Z20	X21	Y21	Z21	X22	Y22	Z22	X23	Y23	Z23	X24	Y24	Z24	X25	Y25	Z25	X26	Y26	Z26	X27	Y27	Z27	X28	Y28	Z28	X29	Y29	Z29	X30	Y30	Z30	X31	Y31	Z31	X32	Y32	Z32	X33	Y33	Z33	

124	31.464785714286	874.989087058022	991.907183694326	432.821474327104	1059.966845035457	1412.203544930785	242.836366901470	1154.074975843439	1349.925391433758	410.568249124582	1061.143485368584	1435.832132368684	573.674095499734	1052.793465876815	1479.282487155467	389.133486336335	1096.891181647259	928.901804879380	558.904772684793	1093.512656595512	947.973805351655	283.945405667153	1173.730681606264	755.282747848699	534.866633211281	1120.757578333010	629.652491690163	596.498049338304	1216.481645358128	598.290180089247	523.635758554015	1244.913996678512	513.915645417163	534.321553510503	1092.478459111933	723.190744000187	310.430579498099	973.765814261886	632.320486643370	244.471844156165	1027.920166707997	536.462962540324	309.822979343167	1009.911175823732	469.305142468368	318.480935545272	974.670714355711	403.958451264911	308.362657771289	868.831243314681	304.559149922754	255.128725467332	901.630531267969	186.916848610063	327.192475810678	1231.067935648754	422.670392235871	540.324626382382	1174.499762307030	306.568160865350	595.174306663963	1245.873859133667	223.349287688250	543.267388544571	1153.059738681940	42.266883415757	505.462460609925	1315.053695033046	111.841236162612	551.446003128669	1234.718647210887	39.101025533616	581.857554762608	1438.564043190954	71.390185162106	579.872722681448	758.693764424404	38.375861645690	368.776444372323	830.743862327045	34.391987259880	286.632160944114	915.146589818686	95.353219188813	312.477601158872	1042.807254385496	43.429155585524	280.804512952396	1085.544582991367	1067.563879242583	111.982815874094	1333.295808412622	1010.866470794198	148.610091924582	897.680036725145	1149.153296687598	711.366562598970	863.288632937096	894.134507642846	760.439611634529	
125	31.476857142857	877.170951299386	990.278987627917	435.389541166658	1060.267765970797	1411.105297131171	245.819887037024	1154.971714242571	1349.263433192561	413.493345762504	1061.387442110877	1434.393755741227	576.760104255844	1052.925981109428	1478.127598801996	392.230113310762	1099.651310355946	927.433579335639	561.066411759676	1095.821916389738	946.597614333575	286.160928091980	1175.902471156650	751.927433435066	536.225062279368	1120.818492428995	627.356705769371	596.946055594394	1215.616436877021	595.207348798080	523.376154646549	1242.527395661019	510.282293081970	533.458427017279	1094.478734335581	721.552135891979	312.129573761012	974.959990763402	631.097467903485	246.737029112557	1029.133061784545	534.714578528665	311.579718066842	1010.808788376743	466.737725749729	320.012389151301	973.832827241230	402.119106597120	309.832429090651	865.872198677002	305.021151291112	256.444926795697	896.428111647584	186.369951867744	327.682469991766	1228.049883894725	418.897207030925	539.691377946092	1170.578286355975	303.253593702094	594.614633940559	1240.429445609080	219.373593058292	541.923575903163	1144.128667693886	40.995339783179	504.367464721761	1307.771961679496	107.134194658657	549.434019663827	1225.600800761207	37.194489058638	581.038073227703	1430.569315892161	63.905027196411	578.452869274675	751.438797964637	39.213396047925	368.613567349522	823.574817810471	34.661719563879	286.651295767763	908.366040833756	95.300881168951	312.403669472989	1035.728612947981	42.812165891429	280.693343023146	1082.524368084524	1065.391976316499	115.924148057953	1330.472407902910	1009.738126894729	152.614862960796	900.768128577173	1145.102551144169	713.112130052774	869.308369797277	889.414503864531	761.486933614225	
126	31.488928571429	879.093698479961	989.052322337160	437.963640262527	1060.748842934584	1410.319433164496	248.856362355740	1155.985238189062	1348.777544807448	416.461857715233	1061.886739924925	1433.172198104310	579.930023093697	1053.359821521612	1477.293169951319	395.425940201327	1102.139122735184	926.413941902748	563.345707677621	1097.890372113883	945.677407864662	288.475216618590	1177.894468589689	749.358447969140	537.483096492070	1121.303696750344	625.896560364650	597.613893431499	1214.928573774165	593.004604990487	523.046274284722	1240.521136595550	507.512494881904	532.659049803765	1096.845793988412	720.256215261389	314.158957753036	976.933960225105	629.825655831930	249.277532199122	1031.506912403686	533.056376146953	313.624624822402	1013.033792672092	464.043029249458	321.672027560940	973.996324672734	400.234906057652	311.451211695921	863.698430766358	305.816725326149	257.901176563632	891.713321527364	186.064695755723	328.166560632083	1225.464512856843	415.991828078670	539.142577037942	1167.342091458386	300.825438657699	594.428748806632	1235.460645603233	216.270111263869	540.725086866852	1135.710148123023	40.285419159172	503.616961502366	1300.854900715984	103.461594935588	547.591480215278	1217.101562805261	36.046327198089	580.457500147494	1423.021733450927	57.843040878126	577.056214063832	744.283537399213	40.803539789597	368.387572889918	816.471784892133	35.308352146992	286.646346396385	901.843331649339	95.348728525855	312.235045359922	1028.645997658701	42.103987680623	280.574055497909	1079.303852378182	1063.475259434978	120.086708368052	1327.239915212106	1007.435317812745	156.579455595228	904.976694890993	1140.621592176490	714.890237270448	876.639588653757	884.242787086026	762.391820515131	
127	31.501000000000	880.728365877731	988.289223904735	440.536106795408	1061.441431265304	1409.911257656277	251.914456875334	1157.091914071982	1348.511946610924	419.451237384458	1062.638869619747	1432.263769436601	583.138086067743	1054.097010462864	1476.836295199209	398.672548754351	1104.287752947203	925.905878946475	565.789956693677	1099.662891411683	945.293046746402	290.936452324145	1179.665564407174	747.707565056346	538.714312133055	1122.156014050566	625.270173334943	598.535238129337	1214.443773754097	591.688236547774	522.805741842907	1238.880199801500	505.596278592983	532.085640640033	1099.519425945860	719.388190577731	316.534660895973	979.716100692854	628.548078300335	252.046122048459	1035.117910597566	531.559478506163	315.902176802362	1016.676578025621	461.307623900902	323.363403706510	975.251867366562	398.376396372523	313.146085327937	862.411249398433	307.042419016748	259.452572835574	887.597446514792	186.119010834896	328.607344297108	1223.261392526267	413.940414476651	538.789766171525	1164.648512662379	299.269207940389	594.638246967831	1230.881332431207	214.027408340451	539.761152931167	1127.832286512547	40.028744895424	503.164254683258	1294.241435097713	100.838185423459	546.046979742404	1209.217973347145	35.529239634912	580.100196492752	1415.882404229675	53.319133265813	575.828926348949	737.310182530682	43.391752510780	368.100665017304	809.477678581716	36.495022637898	286.613396412806	895.660729139701	95.552564631009	311.957934611311	1021.543953579328	41.317768935930	280.457184428659	1075.883351850854	1061.922162402648	124.460412581971	1323.561006088780	1003.982189263140	160.496513415080	910.285238206729	1135.902667255768	716.714127124691	885.340208068007	878.806583754651	763.123546763873	
128	31.513071428571	882.068834559845	988.009431055636	443.121988641785	1062.345450554049	1409.911494680406	254.969419925824	1158.256654109065	1348.489502385981	422.439741632223	1063.623811668686	1431.735969986857	586.341181354509	1055.105667922700	1476.779275289920	401.922759287156	1106.066726067548	925.922822816824	568.431904198008	1101.108881749700	945.465813378260	293.580424800891	1181.190441273038	746.984896399471	540.013062524839	1123.213731004972	625.373278174685	599.722832328926	1214.121486238982	591.142374521802	522.828417850099	1237.496031165465	504.420586338471	531.888192486249	1102.448594108370	719.007741478106	319.223273804258	983.320239986337	627.305373249544	254.968749804482	1040.017810598554	530.289839556654	318.318042744875	1021.791971365102	458.626183979583	324.971609681738	977.683463623140	396.614045930476	314.829465854659	862.116727268771	308.781420091109	261.042718166620	884.201059164420	186.648793942691	328.972161728585	1221.296878890766	412.637577687263	538.728857153414	1162.247154433770	298.476023564165	595.220355372851	1226.526870176423	212.547477940369	539.098007426994	1120.425048774160	40.095308127806	502.954024564645	1287.818279307552	99.171855230829	544.883955247417	1201.851164718923	35.476315235745	579.937948641253	1409.047098605162	50.263282950659	574.864137353778	730.630302716894	47.214539353700	367.765158831168	802.657076996161	38.400206087366	286.554190784902	889.911052364905	95.982032987415	311.570901032352	1014.416617918940	40.469983535440	280.356309183358	1072.271661593228	1060.815930297714	129.023555917038	1319.382026654610	999.417880998103	164.362179879293	916.625243535672	1131.138985069966	718.596496558021	895.461603243815	873.305175623494	763.654322986590	
